<mxfile host="app.diagrams.net" modified="2024-01-17T03:52:13.905Z" agent="Mozilla/5.0 (Windows NT 10.0; Win64; x64) AppleWebKit/537.36 (KHTML, like Gecko) Chrome/120.0.0.0 Safari/537.36" version="22.1.20" etag="zu7Sj8sIx-9IrW7KpUy7" type="github">
  <diagram name="페이지-1" id="xXg0l6JY_XlOr8WnrErB">
    <mxGraphModel>
      <root>
        <mxCell id="0" />
        <mxCell id="1" parent="0" />
      </root>
    </mxGraphModel>
  </diagram>
</mxfile>
